<svg width="343" height="293" viewBox="0 0 343 293" fill="none" xmlns="http://www.w3.org/2000/svg">
<rect x="68.5654" y="219.331" width="68.5653" height="72.8629" fill="white"/>
<rect x="205.696" y="73.605" width="68.5653" height="72.8629" fill="#2F2965"/>
<rect x="137.131" y="219.331" width="68.5653" height="72.8629" fill="#2F2965"/>
<path d="M274.262 219.331H251.407V243.618H228.551V267.906H205.696V292.194H274.262V219.331Z" fill="#F5BD33"/>
<path d="M274.09 110.216L239.832 73.8107L205.574 110.216L274.09 110.216Z" fill="white"/>
<path d="M274.09 146.621L239.832 110.216L205.574 146.621H274.09Z" fill="white"/>
<path d="M137.131 219.331C137.131 239.766 121.782 256.332 102.848 256.332C83.9143 256.332 68.5654 239.766 68.5654 219.331H89.3589C89.3589 227.371 95.3982 233.889 102.848 233.889C110.298 233.889 116.337 227.371 116.337 219.331H137.131Z" fill="#E55733"/>
<path d="M68.5655 292.194C68.5655 272.388 83.9144 256.332 102.848 256.332C121.782 256.332 137.131 272.388 137.131 292.194L116.337 292.194C116.337 284.401 110.298 278.083 102.848 278.083C95.3983 278.083 89.359 284.401 89.359 292.194L68.5655 292.194Z" fill="#2F2965"/>
<path d="M227.649 169.796L205.696 182.899L227.649 196.002L239.979 219.331L252.309 196.002L274.262 182.899L252.309 169.796L239.979 146.468L227.649 169.796Z" fill="#E55733"/>
<path fill-rule="evenodd" clip-rule="evenodd" d="M314.174 225.623C314.174 222.204 311.566 219.432 308.348 219.432C305.13 219.432 302.522 222.204 302.522 225.623V232.41L299.366 226.509C297.776 223.536 294.22 222.496 291.422 224.185C288.625 225.875 287.646 229.654 289.235 232.627L292.826 239.342L286.507 235.526C283.71 233.837 280.153 234.877 278.563 237.85C276.974 240.823 277.953 244.603 280.75 246.292L286.303 249.645H279.916C276.698 249.645 274.09 252.417 274.09 255.837C274.09 259.256 276.698 262.028 279.916 262.028H286.303L280.75 265.382C277.952 267.071 276.973 270.851 278.563 273.824C280.153 276.797 283.709 277.837 286.507 276.148L292.826 272.332L289.235 279.047C287.645 282.02 288.625 285.799 291.422 287.489C294.22 289.178 297.776 288.137 299.366 285.165L302.522 279.263V286.051C302.522 289.47 305.13 292.242 308.348 292.242C311.566 292.242 314.174 289.47 314.174 286.051V279.263L317.33 285.165C318.92 288.137 322.476 289.178 325.274 287.489C328.071 285.799 329.05 282.02 327.461 279.047L323.87 272.332L330.189 276.148C332.986 277.837 336.543 276.797 338.133 273.824C339.723 270.851 338.743 267.071 335.946 265.382L330.393 262.028H336.78C339.997 262.028 342.606 259.256 342.606 255.837C342.606 252.417 339.997 249.646 336.78 249.646H330.393L335.946 246.292C338.743 244.603 339.722 240.823 338.133 237.85C336.543 234.877 332.986 233.837 330.189 235.526L323.87 239.342L327.461 232.627C329.05 229.654 328.071 225.875 325.274 224.185C322.476 222.496 318.919 223.536 317.33 226.509L314.174 232.41V225.623Z" fill="#E55733"/>
<path d="M230.789 9.8565C240.255 19.9164 240.336 36.8737 240.336 36.8737C240.336 36.8737 225.068 37.5207 215.602 27.4608C206.135 17.4009 206.054 0.443584 206.054 0.443584C206.054 0.443584 221.322 -0.203394 230.789 9.8565Z" fill="#F5BD33"/>
<path d="M249.884 9.8565C240.417 19.9164 240.336 36.8737 240.336 36.8737C240.336 36.8737 255.604 37.5207 265.071 27.4608C274.538 17.4009 274.619 0.443584 274.619 0.443584C274.619 0.443584 259.351 -0.203394 249.884 9.8565Z" fill="#F5BD33"/>
<path d="M230.789 63.8768C240.255 53.8169 240.336 36.8596 240.336 36.8596C240.336 36.8596 225.068 36.2126 215.602 46.2725C206.135 56.3324 206.054 73.2897 206.054 73.2897C206.054 73.2897 221.322 73.9367 230.789 63.8768Z" fill="#F5BD33"/>
<path d="M249.884 63.8768C240.417 53.8169 240.336 36.8596 240.336 36.8596C240.336 36.8596 255.604 36.2126 265.071 46.2725C274.538 56.3324 274.619 73.2897 274.619 73.2897C274.619 73.2897 259.351 73.9367 249.884 63.8768Z" fill="#F5BD33"/>
<path d="M286.883 182.899C279.179 186.663 274.261 192.391 274.261 198.808C274.261 210.142 289.61 219.331 308.544 219.331C327.477 219.331 342.826 210.142 342.826 198.808C342.826 192.391 337.908 186.663 330.204 182.899C337.908 179.136 342.826 173.407 342.826 166.991C342.826 155.656 327.477 146.468 308.544 146.468C289.61 146.468 274.261 155.656 274.261 166.991C274.261 173.407 279.179 179.136 286.883 182.899Z" fill="#F5BD33"/>
<path fill-rule="evenodd" clip-rule="evenodd" d="M280.362 119.087C271.92 116 271.92 103.451 280.362 100.364L282.532 99.5712L281.355 97.4978C276.775 89.4296 284.45 79.816 292.805 83.1557L294.952 84.014L295.318 81.6305C296.744 72.3556 308.503 70.1763 312.861 78.3794L313.98 80.4874L315.719 78.9091C322.483 72.7673 332.824 79.0421 331.145 88.2702L330.714 90.6417L333.011 90.607C341.949 90.4722 346.032 102.265 339.103 108.2L337.322 109.725L339.103 111.251C346.032 117.186 341.949 128.979 333.011 128.844L330.714 128.809L331.145 131.181C332.824 140.409 322.483 146.684 315.719 140.542L313.98 138.964L312.861 141.072C308.503 149.275 296.744 147.095 295.318 137.82L294.952 135.437L292.805 136.295C284.45 139.635 276.775 130.021 281.355 121.953L282.532 119.88L280.362 119.087ZM290.923 109.725C295.05 112.101 296.879 117.382 295.17 121.989C299.784 121.021 304.414 123.831 305.923 128.515C308.865 124.656 314.131 123.68 318.152 126.249C318.045 121.305 321.482 116.999 326.133 116.251C323.028 112.535 323.028 106.915 326.133 103.2C321.482 102.452 318.045 98.1464 318.152 93.2024C314.131 95.7712 308.865 94.7953 305.923 90.9361C304.414 95.6202 299.784 98.4301 295.17 97.4616C296.879 102.069 295.05 107.35 290.923 109.725Z" fill="#E55733"/>
<path fill-rule="evenodd" clip-rule="evenodd" d="M289.959 57.6767L274.09 57.0523L291.913 37.4054L274.09 17.7584L289.958 17.1332L291.757 1.00013L308.348 19.2884L324.938 1.00012L326.738 17.1332L342.606 17.7584L324.783 37.4054L342.606 57.0524L326.737 57.6767L324.938 73.8106L308.348 55.5223L291.757 73.8106L289.959 57.6767Z" fill="#2F2965"/>
<path d="M0 253.613C0 234.68 15.3489 219.331 34.2827 219.331V219.331C53.2165 219.331 68.5653 234.68 68.5653 253.613V292.194H0V253.613Z" fill="#F5BD33"/>
<path fill-rule="evenodd" clip-rule="evenodd" d="M171.316 219.525C171.269 239.552 156.005 255.778 137.161 255.837C156.005 255.896 171.269 272.123 171.316 292.15C171.363 272.123 186.627 255.896 205.47 255.837C186.627 255.778 171.363 239.552 171.316 219.525Z" fill="white"/>
<path fill-rule="evenodd" clip-rule="evenodd" d="M171.041 156.338C157.166 156.338 145.919 168.291 145.919 183.036C145.919 197.78 157.166 209.733 171.041 209.733C184.916 209.733 196.164 197.78 196.164 183.036C196.164 168.291 184.916 156.338 171.041 156.338ZM136.783 183.036C136.783 162.93 152.121 146.63 171.041 146.63C189.961 146.63 205.299 162.93 205.299 183.036C205.299 203.142 189.961 219.441 171.041 219.441C152.121 219.441 136.783 203.142 136.783 183.036Z" fill="#F5BD33"/>
<path fill-rule="evenodd" clip-rule="evenodd" d="M171.041 173.365C166.016 173.365 161.942 177.695 161.942 183.036C161.942 188.376 166.016 192.706 171.041 192.706C176.067 192.706 180.141 188.376 180.141 183.036C180.141 177.695 176.067 173.365 171.041 173.365ZM152.842 183.036C152.842 172.354 160.99 163.695 171.041 163.695C181.093 163.695 189.241 172.354 189.241 183.036C189.241 193.717 181.093 202.376 171.041 202.376C160.99 202.376 152.842 193.717 152.842 183.036Z" fill="#E55733"/>
</svg>
