<svg width="279" height="240" viewBox="0 0 279 240" fill="none" xmlns="http://www.w3.org/2000/svg">
<rect x="55.7715" y="179.702" width="55.7718" height="59.6378" fill="white"/>
<rect x="167.315" y="60.4267" width="55.7718" height="59.6378" fill="#2F2965"/>
<rect x="111.543" y="179.702" width="55.7718" height="59.6378" fill="#2F2965"/>
<path d="M223.087 179.702H204.497V199.582H185.906V219.461H167.315V239.34H223.087V179.702Z" fill="#F5BD33"/>
<path d="M222.948 90.3925L195.083 60.595L167.217 90.3925L222.948 90.3925Z" fill="white"/>
<path d="M222.948 120.19L195.083 90.3926L167.217 120.19L222.948 120.19Z" fill="white"/>
<path d="M111.543 179.702C111.543 196.428 99.0583 209.987 83.6574 209.987C68.2564 209.987 55.7715 196.428 55.7715 179.702H72.6851C72.6851 186.283 77.5976 191.618 83.6574 191.618C89.7172 191.618 94.6296 186.283 94.6296 179.702H111.543Z" fill="#E55733"/>
<path d="M55.7712 239.34C55.7712 223.129 68.2561 209.987 83.6571 209.987C99.058 209.987 111.543 223.129 111.543 239.34L94.6293 239.34C94.6293 232.961 89.7169 227.791 83.6571 227.791C77.5973 227.791 72.6848 232.961 72.6848 239.34L55.7712 239.34Z" fill="#2F2965"/>
<path d="M185.172 139.159L167.315 149.883L185.172 160.608L195.201 179.702L205.231 160.608L223.087 149.883L205.231 139.159L195.201 120.064L185.172 139.159Z" fill="#E55733"/>
<path fill-rule="evenodd" clip-rule="evenodd" d="M255.553 184.852C255.553 182.054 253.431 179.785 250.814 179.785C248.197 179.785 246.075 182.054 246.075 184.852V190.408L243.508 185.578C242.215 183.145 239.322 182.293 237.047 183.676C234.771 185.058 233.975 188.152 235.268 190.585L238.189 196.082L233.049 192.958C230.773 191.575 227.88 192.427 226.587 194.86C225.294 197.294 226.09 200.387 228.366 201.77L232.883 204.515H227.687C225.07 204.515 222.948 206.783 222.948 209.582C222.948 212.381 225.07 214.65 227.687 214.65H232.883L228.366 217.395C226.09 218.777 225.294 221.871 226.587 224.304C227.88 226.738 230.773 227.589 233.049 226.206L238.189 223.083L235.268 228.579C233.975 231.013 234.771 234.106 237.047 235.489C239.322 236.872 242.215 236.02 243.508 233.587L246.075 228.757V234.312C246.075 237.111 248.197 239.38 250.814 239.38C253.431 239.38 255.553 237.111 255.553 234.312V228.757L258.12 233.587C259.413 236.02 262.306 236.872 264.582 235.489C266.857 234.106 267.654 231.013 266.361 228.579L263.44 223.083L268.58 226.206C270.855 227.589 273.748 226.738 275.042 224.304C276.335 221.871 275.538 218.777 273.263 217.395L268.746 214.65H273.941C276.558 214.65 278.68 212.381 278.68 209.582C278.68 206.783 276.558 204.515 273.941 204.515H268.746L273.262 201.77C275.538 200.387 276.334 197.294 275.041 194.86C273.748 192.427 270.855 191.575 268.58 192.958L263.44 196.082L266.361 190.585C267.654 188.152 266.857 185.058 264.582 183.676C262.306 182.293 259.413 183.145 258.12 185.578L255.553 190.408V184.852Z" fill="#E55733"/>
<path d="M187.726 8.249C195.427 16.483 195.492 30.3624 195.492 30.3624C195.492 30.3624 183.073 30.8919 175.373 22.658C167.672 14.424 167.606 0.544598 167.606 0.544598C167.606 0.544598 180.026 0.015051 187.726 8.249Z" fill="#F5BD33"/>
<path d="M203.259 8.249C195.558 16.483 195.492 30.3624 195.492 30.3624C195.492 30.3624 207.911 30.8919 215.612 22.658C223.312 14.424 223.378 0.544598 223.378 0.544598C223.378 0.544598 210.959 0.015051 203.259 8.249Z" fill="#F5BD33"/>
<path d="M187.726 52.4642C195.427 44.2303 195.492 30.3509 195.492 30.3509C195.492 30.3509 183.073 29.8213 175.373 38.0553C167.672 46.2892 167.606 60.1686 167.606 60.1686C167.606 60.1686 180.026 60.6982 187.726 52.4642Z" fill="#F5BD33"/>
<path d="M203.259 52.4642C195.558 44.2303 195.492 30.3509 195.492 30.3509C195.492 30.3509 207.911 29.8213 215.612 38.0553C223.312 46.2892 223.378 60.1686 223.378 60.1686C223.378 60.1686 210.959 60.6982 203.259 52.4642Z" fill="#F5BD33"/>
<path d="M233.354 149.883C227.088 152.964 223.088 157.653 223.088 162.904C223.088 172.182 235.573 179.702 250.973 179.702C266.374 179.702 278.859 172.182 278.859 162.904C278.859 157.653 274.858 152.964 268.593 149.883C274.858 146.803 278.859 142.114 278.859 136.862C278.859 127.585 266.374 120.064 250.973 120.064C235.573 120.064 223.088 127.585 223.088 136.862C223.088 142.114 227.088 146.803 233.354 149.883Z" fill="#F5BD33"/>
<path fill-rule="evenodd" clip-rule="evenodd" d="M228.05 97.6531C221.183 95.127 221.183 84.8552 228.05 82.329L229.815 81.6799L228.857 79.9828C225.132 73.3791 231.375 65.5104 238.171 68.2439L239.917 68.9464L240.215 66.9955C241.375 59.4041 250.94 57.6203 254.484 64.3345L255.395 66.0599L256.809 64.7681C262.311 59.7411 270.722 64.877 269.357 72.4301L269.006 74.3711L270.875 74.3428C278.145 74.2324 281.467 83.8847 275.83 88.7427L274.382 89.9911L275.83 91.2395C281.467 96.0974 278.145 105.75 270.875 105.639L269.006 105.611L269.357 107.552C270.722 115.105 262.311 120.241 256.809 115.214L255.395 113.922L254.484 115.648C250.94 122.362 241.375 120.578 240.215 112.987L239.917 111.036L238.171 111.738C231.375 114.472 225.132 106.603 228.857 99.9993L229.815 98.3023L228.05 97.6531ZM236.64 89.9911C239.997 91.9352 241.484 96.2577 240.095 100.029C243.848 99.2362 247.614 101.536 248.842 105.37C251.235 102.211 255.518 101.413 258.788 103.515C258.702 99.4685 261.497 95.9448 265.28 95.3321C262.755 92.291 262.755 87.6911 265.28 84.65C261.497 84.0374 258.702 80.5137 258.788 76.4671C255.518 78.5696 251.235 77.7708 248.842 74.6121C247.614 78.446 243.848 80.7459 240.095 79.9532C241.484 83.7245 239.997 88.047 236.64 89.9911Z" fill="#E55733"/>
<path fill-rule="evenodd" clip-rule="evenodd" d="M235.856 47.3895L222.948 46.8785L237.446 30.7976L222.948 14.7166L235.855 14.2049L237.319 1.00013L250.814 15.969L264.309 1.00012L265.773 14.2049L278.68 14.7166L264.182 30.7976L278.68 46.8785L265.772 47.3895L264.309 60.595L250.814 45.6262L237.319 60.595L235.856 47.3895Z" fill="#2F2965"/>
<path d="M0 207.588C0 192.187 12.4849 179.702 27.8859 179.702V179.702C43.2869 179.702 55.7718 192.187 55.7718 207.588V239.34H0V207.588Z" fill="#F5BD33"/>
<path fill-rule="evenodd" clip-rule="evenodd" d="M139.351 179.862C139.312 196.274 126.866 209.566 111.513 209.582C126.866 209.598 139.312 222.891 139.351 239.302C139.39 222.891 151.836 209.598 167.189 209.582C151.836 209.566 139.39 196.273 139.351 179.862Z" fill="white"/>
<path fill-rule="evenodd" clip-rule="evenodd" d="M139.127 128.143C127.841 128.143 118.692 137.927 118.692 149.995C118.692 162.063 127.841 171.846 139.127 171.846C150.412 171.846 159.562 162.063 159.562 149.995C159.562 137.927 150.412 128.143 139.127 128.143ZM111.261 149.995C111.261 133.538 123.737 120.197 139.127 120.197C154.516 120.197 166.992 133.538 166.992 149.995C166.992 166.452 154.516 179.792 139.127 179.792C123.737 179.792 111.261 166.452 111.261 149.995Z" fill="#F5BD33"/>
<path fill-rule="evenodd" clip-rule="evenodd" d="M139.127 142.08C135.039 142.08 131.725 145.624 131.725 149.995C131.725 154.366 135.039 157.91 139.127 157.91C143.215 157.91 146.529 154.366 146.529 149.995C146.529 145.624 143.215 142.08 139.127 142.08ZM124.323 149.995C124.323 141.252 130.951 134.165 139.127 134.165C147.303 134.165 153.931 141.252 153.931 149.995C153.931 158.738 147.303 165.825 139.127 165.825C130.951 165.825 124.323 158.738 124.323 149.995Z" fill="#E55733"/>
</svg>
