<svg width="462" height="396" viewBox="0 0 462 396" fill="none" xmlns="http://www.w3.org/2000/svg">
<rect x="92.3535" y="296.345" width="92.3533" height="98.5646" fill="white"/>
<rect x="277.06" y="99.2156" width="92.3533" height="98.5646" fill="#2F2965"/>
<rect x="184.706" y="296.345" width="92.3533" height="98.5646" fill="#2F2965"/>
<path d="M369.413 296.345H338.628V329.2H307.844V362.054H277.06V394.909H369.413V296.345Z" fill="#F5BD33"/>
<path d="M369.183 148.741L323.04 99.4939L276.896 148.741H369.183Z" fill="white"/>
<path d="M369.183 197.988L323.04 148.741L276.896 197.988H369.183Z" fill="white"/>
<path d="M184.707 296.345C184.707 323.988 164.033 346.397 138.53 346.397C113.028 346.397 92.3535 323.988 92.3535 296.345H120.361C120.361 307.221 128.496 316.039 138.53 316.039C148.565 316.039 156.699 307.221 156.699 296.345H184.707Z" fill="#E55733"/>
<path d="M92.3528 394.909C92.3527 368.117 113.027 346.397 138.529 346.397C164.032 346.397 184.706 368.117 184.706 394.909L156.698 394.909C156.698 384.367 148.564 375.821 138.529 375.821C128.495 375.821 120.36 384.367 120.36 394.909L92.3528 394.909Z" fill="#2F2965"/>
<path d="M306.628 229.338L277.06 247.062L306.628 264.787L323.236 296.345L339.844 264.787L369.413 247.062L339.844 229.338L323.236 197.78L306.628 229.338Z" fill="#E55733"/>
<path fill-rule="evenodd" clip-rule="evenodd" d="M423.174 304.856C423.174 300.231 419.66 296.481 415.326 296.481C410.992 296.481 407.479 300.231 407.479 304.856V314.038L403.228 306.055C401.087 302.034 396.296 300.626 392.528 302.912C388.76 305.197 387.441 310.31 389.583 314.331L394.419 323.415L385.908 318.253C382.14 315.968 377.35 317.375 375.208 321.397C373.067 325.418 374.386 330.531 378.154 332.817L385.633 337.353H377.03C372.696 337.353 369.183 341.102 369.183 345.728C369.183 350.353 372.696 354.103 377.03 354.103H385.633L378.153 358.64C374.385 360.925 373.066 366.038 375.208 370.059C377.349 374.081 382.14 375.488 385.908 373.203L394.419 368.041L389.583 377.125C387.441 381.146 388.76 386.259 392.528 388.544C396.296 390.83 401.087 389.422 403.228 385.401L407.479 377.418V386.599C407.479 391.225 410.992 394.975 415.326 394.975C419.66 394.975 423.174 391.225 423.174 386.599V377.418L427.424 385.401C429.566 389.422 434.356 390.83 438.124 388.544C441.892 386.259 443.211 381.146 441.07 377.125L436.233 368.041L444.745 373.203C448.513 375.488 453.303 374.081 455.445 370.059C457.586 366.038 456.267 360.925 452.499 358.64L445.019 354.103H453.622C457.956 354.103 461.469 350.353 461.469 345.728C461.469 341.102 457.956 337.353 453.622 337.353H445.019L452.499 332.817C456.267 330.531 457.586 325.418 455.444 321.397C453.303 317.375 448.512 315.968 444.744 318.253L436.233 323.415L441.07 314.331C443.211 310.31 441.892 305.197 438.124 302.912C434.356 300.626 429.565 302.034 427.424 306.055L423.174 314.038V304.856Z" fill="#E55733"/>
<path d="M310.857 12.9806C323.609 26.589 323.718 49.5278 323.718 49.5278C323.718 49.5278 303.153 50.403 290.401 36.7945C277.65 23.1861 277.541 0.247329 277.541 0.247329C277.541 0.247329 298.106 -0.627863 310.857 12.9806Z" fill="#F5BD33"/>
<path d="M336.578 12.9806C323.827 26.589 323.718 49.5278 323.718 49.5278C323.718 49.5278 344.283 50.403 357.034 36.7945C369.785 23.1861 369.894 0.247329 369.894 0.247329C369.894 0.247329 349.329 -0.627863 336.578 12.9806Z" fill="#F5BD33"/>
<path d="M310.857 86.0559C323.609 72.4475 323.718 49.5087 323.718 49.5087C323.718 49.5087 303.153 48.6335 290.401 62.2419C277.65 75.8504 277.541 98.7891 277.541 98.7891C277.541 98.7891 298.106 99.6643 310.857 86.0559Z" fill="#F5BD33"/>
<path d="M336.578 86.0559C323.827 72.4475 323.718 49.5087 323.718 49.5087C323.718 49.5087 344.283 48.6335 357.034 62.2419C369.785 75.8504 369.894 98.7891 369.894 98.7891C369.894 98.7891 349.329 99.6643 336.578 86.0559Z" fill="#F5BD33"/>
<path d="M386.414 247.062C376.038 252.153 369.413 259.903 369.413 268.582C369.413 283.915 390.087 296.345 415.59 296.345C441.093 296.345 461.767 283.915 461.767 268.582C461.767 259.903 455.141 252.153 444.766 247.062C455.141 241.972 461.767 234.222 461.767 225.543C461.767 210.21 441.093 197.78 415.59 197.78C390.087 197.78 369.413 210.21 369.413 225.543C369.413 234.222 376.038 241.972 386.414 247.062Z" fill="#F5BD33"/>
<path fill-rule="evenodd" clip-rule="evenodd" d="M377.63 160.74C366.259 156.566 366.259 139.589 377.63 135.414L380.553 134.341L378.968 131.536C372.798 120.622 383.136 107.618 394.39 112.135L397.282 113.296L397.775 110.072C399.696 97.5255 415.534 94.5775 421.404 105.674L422.912 108.526L425.253 106.391C434.365 98.0825 448.292 106.571 446.032 119.054L445.451 122.262L448.545 122.215C460.583 122.033 466.084 137.985 456.751 146.014L454.352 148.077L456.751 150.141C466.084 158.169 460.583 174.122 448.545 173.94L445.451 173.893L446.032 177.101C448.292 189.584 434.365 198.072 425.253 189.764L422.912 187.629L421.404 190.48C415.534 201.577 399.696 198.629 397.775 186.082L397.282 182.858L394.39 184.019C383.136 188.537 372.798 175.532 378.968 164.618L380.553 161.813L377.63 160.74ZM391.855 148.077C397.414 151.29 399.877 158.434 397.575 164.667C403.79 163.357 410.027 167.158 412.059 173.494C416.022 168.274 423.115 166.954 428.53 170.429C428.387 163.741 433.016 157.917 439.281 156.905C435.099 151.878 435.099 144.276 439.281 139.25C433.016 138.238 428.387 132.414 428.53 125.726C423.115 129.201 416.022 127.881 412.059 122.66C410.027 128.997 403.79 132.798 397.575 131.487C399.877 137.72 397.414 144.864 391.855 148.077Z" fill="#E55733"/>
<path fill-rule="evenodd" clip-rule="evenodd" d="M390.557 77.6688L369.183 76.8242L393.189 50.247L369.183 23.6697L390.556 22.824L392.98 1.0002L415.326 25.7395L437.672 1.00018L440.096 22.824L461.469 23.6697L437.463 50.247L461.469 76.8243L440.095 77.6688L437.672 99.4938L415.326 74.7545L392.98 99.4938L390.557 77.6688Z" fill="#2F2965"/>
<path d="M0 342.521C0 317.019 20.674 296.345 46.1767 296.345V296.345C71.6793 296.345 92.3533 317.019 92.3533 342.521V394.909H0V342.521Z" fill="#F5BD33"/>
<path fill-rule="evenodd" clip-rule="evenodd" d="M230.752 296.609C230.688 323.708 210.115 345.662 184.724 345.728C210.115 345.794 230.688 367.748 230.752 394.847C230.817 367.748 251.389 345.794 276.781 345.728C251.389 345.662 230.817 323.708 230.752 296.609Z" fill="white"/>
<path fill-rule="evenodd" clip-rule="evenodd" d="M230.383 211.132C211.694 211.132 196.544 227.301 196.544 247.247C196.544 267.192 211.694 283.361 230.383 283.361C249.071 283.361 264.221 267.192 264.221 247.247C264.221 227.301 249.071 211.132 230.383 211.132ZM184.239 247.247C184.239 220.049 204.898 198 230.383 198C255.867 198 276.526 220.049 276.526 247.247C276.526 274.445 255.867 296.494 230.383 296.494C204.898 296.494 184.239 274.445 184.239 247.247Z" fill="#F5BD33"/>
<path fill-rule="evenodd" clip-rule="evenodd" d="M230.383 234.166C223.614 234.166 218.126 240.022 218.126 247.247C218.126 254.471 223.614 260.328 230.383 260.328C237.152 260.328 242.64 254.471 242.64 247.247C242.64 240.022 237.152 234.166 230.383 234.166ZM205.869 247.247C205.869 232.798 216.844 221.084 230.383 221.084C243.921 221.084 254.897 232.798 254.897 247.247C254.897 261.696 243.921 273.409 230.383 273.409C216.844 273.409 205.869 261.696 205.869 247.247Z" fill="#E55733"/>
</svg>
