<svg width="139" height="120" viewBox="0 0 139 120" fill="none" xmlns="http://www.w3.org/2000/svg">
<rect x="27.7861" y="89.9773" width="27.786" height="29.6941" fill="white"/>
<rect x="83.3574" y="30.589" width="27.786" height="29.6941" fill="#2F2965"/>
<rect x="55.5723" y="89.9773" width="27.786" height="29.6941" fill="#2F2965"/>
<path d="M111.143 89.9773H101.881V99.8753H92.6194V109.773H83.3574V119.671H111.143V89.9773Z" fill="#F5BD33"/>
<path d="M111.075 45.5092L97.1916 30.6729L83.3086 45.5092L111.075 45.5092Z" fill="white"/>
<path d="M111.075 60.3457L97.1916 45.5093L83.3086 60.3457L111.075 60.3457Z" fill="white"/>
<path d="M55.5721 89.9773C55.5721 98.3052 49.352 105.056 41.6791 105.056C34.0062 105.056 27.7861 98.3052 27.7861 89.9773H36.2127C36.2127 93.2541 38.6601 95.9104 41.6791 95.9104C44.6981 95.9104 47.1456 93.2541 47.1456 89.9773H55.5721Z" fill="#E55733"/>
<path d="M27.7863 119.671C27.7863 111.6 34.0064 105.056 41.6793 105.056C49.3522 105.056 55.5723 111.6 55.5723 119.671L47.1457 119.671C47.1457 116.495 44.6983 113.921 41.6793 113.921C38.6603 113.921 36.2128 116.495 36.2128 119.671L27.7863 119.671Z" fill="#2F2965"/>
<path d="M92.2537 69.7903L83.3574 75.1302L92.2537 80.4701L97.2504 89.9773L102.247 80.4701L111.143 75.1302L102.247 69.7903L97.2504 60.2831L92.2537 69.7903Z" fill="#E55733"/>
<path fill-rule="evenodd" clip-rule="evenodd" d="M127.318 92.5416C127.318 91.148 126.261 90.0184 124.957 90.0184C123.653 90.0184 122.596 91.148 122.596 92.5416V95.3076L121.317 92.9028C120.673 91.6912 119.232 91.2672 118.098 91.9557C116.964 92.6442 116.568 94.1845 117.212 95.396L118.667 98.1327L116.106 96.5775C114.973 95.889 113.531 96.3131 112.887 97.5246C112.243 98.7362 112.64 100.276 113.773 100.965L116.024 102.332H113.435C112.131 102.332 111.074 103.461 111.074 104.855C111.074 106.248 112.131 107.378 113.435 107.378H116.024L113.773 108.745C112.64 109.433 112.243 110.973 112.887 112.185C113.531 113.397 114.973 113.821 116.106 113.132L118.667 111.577L117.212 114.314C116.568 115.525 116.964 117.065 118.098 117.754C119.232 118.442 120.673 118.018 121.317 116.807L122.596 114.402V117.168C122.596 118.561 123.653 119.691 124.957 119.691C126.261 119.691 127.318 118.561 127.318 117.168V114.402L128.597 116.807C129.241 118.018 130.683 118.442 131.816 117.754C132.95 117.065 133.347 115.525 132.703 114.314L131.247 111.577L133.808 113.132C134.942 113.821 136.383 113.397 137.027 112.185C137.672 110.973 137.275 109.433 136.141 108.745L133.891 107.378H136.479C137.783 107.378 138.84 106.248 138.84 104.855C138.84 103.461 137.783 102.332 136.479 102.332H133.891L136.141 100.965C137.275 100.276 137.672 98.7362 137.027 97.5246C136.383 96.3131 134.942 95.889 133.808 96.5775L131.247 98.1327L132.703 95.396C133.347 94.1845 132.95 92.6442 131.816 91.9557C130.683 91.2672 129.241 91.6912 128.597 92.9028L127.318 95.3076V92.5416Z" fill="#E55733"/>
<path d="M93.5267 4.60935C97.3631 8.7091 97.3959 15.6198 97.3959 15.6198C97.3959 15.6198 91.2086 15.8834 87.3722 11.7837C83.5357 7.68394 83.5029 0.773261 83.5029 0.773261C83.5029 0.773261 89.6902 0.509596 93.5267 4.60935Z" fill="#F5BD33"/>
<path d="M101.265 4.60935C97.4287 8.7091 97.3959 15.6198 97.3959 15.6198C97.3959 15.6198 103.583 15.8834 107.42 11.7837C111.256 7.68394 111.289 0.773261 111.289 0.773261C111.289 0.773261 105.102 0.509596 101.265 4.60935Z" fill="#F5BD33"/>
<path d="M93.5267 26.6245C97.3631 22.5247 97.3959 15.614 97.3959 15.614C97.3959 15.614 91.2086 15.3504 87.3722 19.4501C83.5357 23.5499 83.5029 30.4605 83.5029 30.4605C83.5029 30.4605 89.6902 30.7242 93.5267 26.6245Z" fill="#F5BD33"/>
<path d="M101.265 26.6245C97.4287 22.5247 97.3959 15.614 97.3959 15.614C97.3959 15.614 103.583 15.3504 107.42 19.4501C111.256 23.5499 111.289 30.4605 111.289 30.4605C111.289 30.4605 105.102 30.7242 101.265 26.6245Z" fill="#F5BD33"/>
<path d="M116.259 75.1302C113.137 76.6639 111.144 78.9986 111.144 81.6134C111.144 86.2327 117.364 89.9773 125.037 89.9773C132.71 89.9773 138.93 86.2327 138.93 81.6134C138.93 78.9986 136.936 76.6639 133.815 75.1302C136.936 73.5965 138.93 71.2619 138.93 68.647C138.93 64.0278 132.71 60.2832 125.037 60.2832C117.364 60.2832 111.144 64.0278 111.144 68.647C111.144 71.2619 113.137 73.5965 116.259 75.1302Z" fill="#F5BD33"/>
<path fill-rule="evenodd" clip-rule="evenodd" d="M113.616 49.1244C110.194 47.8666 110.194 42.7522 113.616 41.4944L114.495 41.1712L114.018 40.3262C112.162 37.0381 115.272 33.1202 118.658 34.4813L119.528 34.831L119.677 33.8597C120.254 30.0799 125.02 29.1917 126.786 32.5348L127.24 33.3939L127.944 32.7506C130.685 30.2477 134.876 32.8049 134.195 36.5656L134.021 37.5321L134.951 37.518C138.574 37.463 140.228 42.269 137.42 44.6878L136.699 45.3094L137.42 45.931C140.228 48.3497 138.574 53.1557 134.951 53.1008L134.021 53.0867L134.195 54.0531C134.876 57.8139 130.685 60.3711 127.944 57.8681L127.24 57.2249L126.786 58.084C125.02 61.427 120.255 60.5389 119.677 56.759L119.528 55.7877L118.658 56.1375C115.272 57.4985 112.162 53.5806 114.018 50.2926L114.495 49.4476L113.616 49.1244ZM117.896 45.3094C119.568 46.2774 120.309 48.4296 119.617 50.3073C121.486 49.9126 123.363 51.0578 123.974 52.9667C125.167 51.3939 127.301 50.9962 128.93 52.0431C128.887 50.0282 130.28 48.2738 132.164 47.9687C130.906 46.4545 130.906 44.1642 132.164 42.65C130.28 42.345 128.887 40.5905 128.93 38.5757C127.301 39.6225 125.167 39.2248 123.974 37.6521C123.363 39.561 121.486 40.7061 119.617 40.3114C120.309 42.1892 119.568 44.3414 117.896 45.3094Z" fill="#E55733"/>
<path fill-rule="evenodd" clip-rule="evenodd" d="M117.505 24.0977L111.074 23.8433L118.297 15.8364L111.074 7.82963L117.505 7.57483L118.234 1.00007L124.957 8.45317L131.68 1.00006L132.41 7.57483L138.84 7.82962L131.617 15.8364L138.84 23.8433L132.409 24.0977L131.68 30.6728L124.957 23.2197L118.234 30.6728L117.505 24.0977Z" fill="#2F2965"/>
<path d="M0 103.87C0 96.1974 6.2201 89.9773 13.893 89.9773V89.9773C21.5659 89.9773 27.786 96.1974 27.786 103.87V119.671H0V103.87Z" fill="#F5BD33"/>
<path fill-rule="evenodd" clip-rule="evenodd" d="M69.426 90.057C69.4066 98.2176 63.2221 104.83 55.5869 104.855C63.2221 104.88 69.4066 111.492 69.426 119.653C69.4454 111.492 75.6298 104.88 83.265 104.855C75.6298 104.83 69.4454 98.2176 69.426 90.057Z" fill="white"/>
<path fill-rule="evenodd" clip-rule="evenodd" d="M69.3146 64.3057C63.6919 64.3057 59.1338 69.1769 59.1338 75.1858C59.1338 81.1946 63.6919 86.0658 69.3146 86.0658C74.9374 86.0658 79.4955 81.1946 79.4955 75.1858C79.4955 69.1769 74.9374 64.3057 69.3146 64.3057ZM55.4316 75.1858C55.4316 66.9918 61.6473 60.3494 69.3146 60.3494C76.982 60.3494 83.1976 66.9918 83.1976 75.1858C83.1976 83.3797 76.982 90.0221 69.3146 90.0221C61.6473 90.0221 55.4316 83.3797 55.4316 75.1858Z" fill="#F5BD33"/>
<path fill-rule="evenodd" clip-rule="evenodd" d="M69.3148 71.2448C67.2781 71.2448 65.6271 73.0092 65.6271 75.1858C65.6271 77.3623 67.2781 79.1267 69.3148 79.1267C71.3514 79.1267 73.0025 77.3623 73.0025 75.1858C73.0025 73.0092 71.3514 71.2448 69.3148 71.2448ZM61.9395 75.1858C61.9395 70.8327 65.2415 67.3039 69.3148 67.3039C73.3881 67.3039 76.6901 70.8327 76.6901 75.1858C76.6901 79.5388 73.3881 83.0676 69.3148 83.0676C65.2415 83.0676 61.9395 79.5388 61.9395 75.1858Z" fill="#E55733"/>
</svg>
